<svg width="133" height="34" viewBox="0 0 133 34" fill="none" xmlns="http://www.w3.org/2000/svg">
<path d="M28.6574 27.7413C28.6574 28.3797 25.6165 30.2264 19.8133 30.2264C14.0118 30.2264 10.9717 28.3797 10.9717 27.7413V21.3106L7.65863 19.5092V27.7413C7.65863 31.5477 13.7731 33.5394 19.8133 33.5394C25.8548 33.5394 31.9704 31.5477 31.9704 27.7413V19.5092L28.6574 21.3106V27.7413Z" fill="#A5B4FC"/>
<path d="M39.9192 29.5881L37.9643 23.3576C38.4359 22.9613 38.7417 22.3756 38.7417 21.7117C38.7417 20.771 38.1361 19.979 37.2964 19.6825V13.7839L38.7626 12.9867C39.2961 12.6974 39.6281 12.1385 39.6281 11.5316C39.6281 10.9248 39.2961 10.3665 38.7626 10.0766L20.6064 0.20174C20.1118 -0.0672466 19.5168 -0.0672466 19.0233 0.20174L0.865351 10.0766C0.331937 10.3666 0 10.9248 0 11.5316C0 12.1385 0.331937 12.6974 0.865351 12.9874L19.0233 22.8602C19.27 22.9941 19.5423 23.0611 19.8145 23.0611C20.0867 23.0611 20.359 22.9941 20.6057 22.8596L35.8673 14.5613V19.6824C35.0276 19.9782 34.4227 20.7708 34.4227 21.7116C34.4227 22.3755 34.7285 22.9626 35.2001 23.3589L33.2459 29.5881C33.0773 30.124 33.1743 30.7086 33.5069 31.162C33.8401 31.6153 34.3689 31.8829 34.9312 31.8829H38.2337C38.7959 31.8829 39.3247 31.6153 39.6573 31.162C39.99 30.7092 40.0872 30.1247 39.9192 29.5881ZM19.8146 19.519L5.12442 11.5316L19.8145 3.54294L34.5034 11.5316L19.8146 19.519Z" fill="#A5B4FC"/>
<path d="M64.25 19.7424C64.2422 20.2346 64.2227 20.6682 64.1914 21.0432C64.168 21.4103 64.125 21.758 64.0625 22.0861C64 22.4142 63.9336 22.6916 63.8633 22.9182C63.793 23.1447 63.6797 23.3596 63.5234 23.5627C63.375 23.758 63.2305 23.9182 63.0898 24.0432C62.9492 24.1603 62.7461 24.2697 62.4805 24.3713C62.2227 24.465 61.9727 24.5353 61.7305 24.5822C61.4883 24.6291 61.1641 24.6682 60.7578 24.6994C60.3594 24.7307 59.9727 24.7502 59.5977 24.758C59.2305 24.7658 58.7656 24.7697 58.2031 24.7697H51.9453V7.30878H58.5781C59.4609 7.30878 60.1914 7.35565 60.7695 7.4494C61.3555 7.53534 61.8711 7.6955 62.3164 7.92987C62.7695 8.16425 63.0977 8.49628 63.3008 8.92596C63.5039 9.35565 63.6094 9.90253 63.6172 10.5666L63.6289 11.8322C63.6289 12.3635 63.6094 12.7971 63.5703 13.133C63.5312 13.4689 63.4609 13.7736 63.3594 14.0471C63.2656 14.3205 63.1211 14.5353 62.9258 14.6916C62.7305 14.8478 62.4922 14.9807 62.2109 15.09C61.9375 15.1916 61.582 15.2814 61.1445 15.3596C61.6758 15.4142 62.1328 15.5314 62.5156 15.7111C62.8984 15.8908 63.1992 16.1057 63.418 16.3557C63.6445 16.6057 63.8203 16.9221 63.9453 17.3049C64.0703 17.6877 64.1523 18.0627 64.1914 18.4299C64.2305 18.7971 64.25 19.2346 64.25 19.7424ZM61.3086 11.3283C61.3086 11.3127 61.3086 11.2892 61.3086 11.258C61.3086 10.9299 61.3086 10.6994 61.3086 10.5666C61.3086 10.426 61.2852 10.258 61.2383 10.0627C61.1992 9.85956 61.1562 9.72675 61.1094 9.66425C61.0703 9.60175 60.9727 9.51971 60.8164 9.41815C60.668 9.30878 60.5195 9.24628 60.3711 9.23065C60.2227 9.20721 59.9883 9.17987 59.668 9.14862C59.3555 9.10956 59.043 9.09003 58.7305 9.09003C58.418 9.09003 57.9922 9.09003 57.4531 9.09003H54.3008V14.6916H56.6562C57.6797 14.6916 58.5078 14.6642 59.1406 14.6096C59.7734 14.5471 60.2422 14.4455 60.5469 14.3049C60.8594 14.1564 61.0625 14.0002 61.1562 13.8361C61.2578 13.6721 61.3086 13.4533 61.3086 13.1799V11.3283ZM61.9297 19.1799C61.9141 18.2502 61.8789 17.6642 61.8242 17.4221C61.7148 16.9924 61.4453 16.6994 61.0156 16.5432C60.4844 16.34 59.2969 16.2346 57.4531 16.2267C57.3281 16.2267 57.1914 16.2267 57.043 16.2267H54.3008V23.0002H58.7773C59.6836 23.0002 60.3672 22.926 60.8281 22.7775C61.2891 22.6213 61.5938 22.3908 61.7422 22.0861C61.8906 21.7814 61.9609 21.3322 61.9531 20.7385L61.9297 19.1799ZM77.3516 18.1603C76.4141 18.2541 75.832 18.3088 75.6055 18.3244H69.2188C69.2266 19.4572 69.2578 20.6994 69.3125 22.051C69.3516 22.5744 69.5742 22.9221 69.9805 23.0939C70.3945 23.258 71.1953 23.34 72.3828 23.34C72.8281 23.34 73.2109 23.3244 73.5312 23.2932C73.8516 23.2541 74.1094 23.1916 74.3047 23.1057C74.5078 23.0119 74.6641 22.926 74.7734 22.8478C74.8906 22.7619 74.9766 22.633 75.0312 22.4611C75.0859 22.2814 75.1211 22.133 75.1367 22.0158C75.1523 21.8908 75.168 21.7072 75.1836 21.465C75.1992 21.215 75.2188 21.0119 75.2422 20.8557L77.0352 21.1838C77.0195 21.7307 76.9805 22.1955 76.918 22.5783C76.8555 22.9533 76.75 23.2853 76.6016 23.5744C76.4531 23.8635 76.2773 24.0939 76.0742 24.2658C75.8711 24.4299 75.5977 24.5666 75.2539 24.676C74.9102 24.7853 74.5312 24.8557 74.1172 24.8869C73.7031 24.926 73.1914 24.9455 72.582 24.9455C71.8008 24.9455 71.1211 24.8986 70.543 24.8049C69.9648 24.7189 69.4688 24.6096 69.0547 24.4767C68.6484 24.3439 68.3125 24.1291 68.0469 23.8322C67.7812 23.5275 67.5703 23.2385 67.4141 22.965C67.2656 22.6916 67.1562 22.2892 67.0859 21.758C67.0156 21.2267 66.9688 20.7463 66.9453 20.3166C66.9297 19.8791 66.9219 19.2775 66.9219 18.5119C66.9219 17.4338 66.9336 16.5939 66.957 15.9924C66.9883 15.3908 67.0664 14.7892 67.1914 14.1877C67.3164 13.5783 67.4844 13.1369 67.6953 12.8635C67.9062 12.59 68.2188 12.3361 68.6328 12.1017C69.0469 11.8674 69.5352 11.7189 70.0977 11.6564C70.6602 11.5861 71.375 11.551 72.2422 11.551C72.8438 11.551 73.3633 11.5705 73.8008 11.6096C74.2383 11.6408 74.6406 11.7111 75.0078 11.8205C75.375 11.9299 75.6758 12.0549 75.9102 12.1955C76.1523 12.3361 76.3633 12.5432 76.543 12.8166C76.7305 13.09 76.8711 13.3752 76.9648 13.6721C77.0664 13.9611 77.1484 14.3478 77.2109 14.8322C77.2734 15.3166 77.3125 15.8088 77.3281 16.3088C77.3438 16.801 77.3516 17.4182 77.3516 18.1603ZM69.2305 17.0939H75.043C75.0273 16.0939 74.9883 15.1799 74.9258 14.3517C74.8945 13.8752 74.6875 13.5588 74.3047 13.4025C73.9297 13.2385 73.2383 13.1564 72.2305 13.1564C71.1133 13.1564 70.4062 13.2189 70.1094 13.3439C69.9766 13.383 69.8594 13.4533 69.7578 13.5549C69.6641 13.6486 69.5859 13.7853 69.5234 13.965C69.4609 14.1447 69.4102 14.3127 69.3711 14.4689C69.3398 14.6252 69.3125 14.8439 69.2891 15.1252C69.2734 15.3986 69.2617 15.6135 69.2539 15.7697C69.2461 15.9182 69.2383 16.1486 69.2305 16.4611C69.2305 16.7736 69.2305 16.9846 69.2305 17.0939ZM87.8633 24.7697H79.7773L79.5781 23.1174L85.5898 13.5197H80.1172L80.0117 11.9142H87.793L87.8984 13.5197L81.9102 23.1877H87.9688L87.8633 24.7697ZM100.227 9.11346H95.668V24.7697H93.2891V9.11346H88.8242V7.30878H100.227V9.11346ZM111.758 18.1603C110.82 18.2541 110.238 18.3088 110.012 18.3244H103.625C103.633 19.4572 103.664 20.6994 103.719 22.051C103.758 22.5744 103.98 22.9221 104.387 23.0939C104.801 23.258 105.602 23.34 106.789 23.34C107.234 23.34 107.617 23.3244 107.938 23.2932C108.258 23.2541 108.516 23.1916 108.711 23.1057C108.914 23.0119 109.07 22.926 109.18 22.8478C109.297 22.7619 109.383 22.633 109.438 22.4611C109.492 22.2814 109.527 22.133 109.543 22.0158C109.559 21.8908 109.574 21.7072 109.59 21.465C109.605 21.215 109.625 21.0119 109.648 20.8557L111.441 21.1838C111.426 21.7307 111.387 22.1955 111.324 22.5783C111.262 22.9533 111.156 23.2853 111.008 23.5744C110.859 23.8635 110.684 24.0939 110.48 24.2658C110.277 24.4299 110.004 24.5666 109.66 24.676C109.316 24.7853 108.938 24.8557 108.523 24.8869C108.109 24.926 107.598 24.9455 106.988 24.9455C106.207 24.9455 105.527 24.8986 104.949 24.8049C104.371 24.7189 103.875 24.6096 103.461 24.4767C103.055 24.3439 102.719 24.1291 102.453 23.8322C102.188 23.5275 101.977 23.2385 101.82 22.965C101.672 22.6916 101.562 22.2892 101.492 21.758C101.422 21.2267 101.375 20.7463 101.352 20.3166C101.336 19.8791 101.328 19.2775 101.328 18.5119C101.328 17.4338 101.34 16.5939 101.363 15.9924C101.395 15.3908 101.473 14.7892 101.598 14.1877C101.723 13.5783 101.891 13.1369 102.102 12.8635C102.312 12.59 102.625 12.3361 103.039 12.1017C103.453 11.8674 103.941 11.7189 104.504 11.6564C105.066 11.5861 105.781 11.551 106.648 11.551C107.25 11.551 107.77 11.5705 108.207 11.6096C108.645 11.6408 109.047 11.7111 109.414 11.8205C109.781 11.9299 110.082 12.0549 110.316 12.1955C110.559 12.3361 110.77 12.5432 110.949 12.8166C111.137 13.09 111.277 13.3752 111.371 13.6721C111.473 13.9611 111.555 14.3478 111.617 14.8322C111.68 15.3166 111.719 15.8088 111.734 16.3088C111.75 16.801 111.758 17.4182 111.758 18.1603ZM103.637 17.0939H109.449C109.434 16.0939 109.395 15.1799 109.332 14.3517C109.301 13.8752 109.094 13.5588 108.711 13.4025C108.336 13.2385 107.645 13.1564 106.637 13.1564C105.52 13.1564 104.812 13.2189 104.516 13.3439C104.383 13.383 104.266 13.4533 104.164 13.5549C104.07 13.6486 103.992 13.7853 103.93 13.965C103.867 14.1447 103.816 14.3127 103.777 14.4689C103.746 14.6252 103.719 14.8439 103.695 15.1252C103.68 15.3986 103.668 15.6135 103.66 15.7697C103.652 15.9182 103.645 16.1486 103.637 16.4611C103.637 16.7736 103.637 16.9846 103.637 17.0939ZM124.191 21.2072C124.191 21.9572 124.109 22.5744 123.945 23.0588C123.781 23.5353 123.508 23.9142 123.125 24.1955C122.75 24.4767 122.289 24.6721 121.742 24.7814C121.203 24.8908 120.52 24.9455 119.691 24.9455C119.207 24.9455 118.816 24.9416 118.52 24.9338C118.23 24.926 117.895 24.9064 117.512 24.8752C117.129 24.8439 116.824 24.7971 116.598 24.7346C116.371 24.6642 116.125 24.5744 115.859 24.465C115.602 24.3478 115.398 24.2033 115.25 24.0314C115.102 23.8517 114.961 23.6408 114.828 23.3986C114.695 23.1564 114.602 22.8713 114.547 22.5432C114.492 22.2072 114.465 21.8283 114.465 21.4064L116.281 20.9377C116.352 21.8283 116.434 22.3908 116.527 22.6252C116.668 22.9455 116.961 23.1486 117.406 23.2346C117.742 23.3049 118.449 23.34 119.527 23.34C120.176 23.34 120.656 23.3127 120.969 23.258C121.289 23.1955 121.504 23.0822 121.613 22.9182C121.926 22.6603 122.082 21.7814 122.082 20.2814C122.082 20.0549 122.035 19.8635 121.941 19.7072C121.848 19.5432 121.734 19.4221 121.602 19.3439C121.469 19.258 121.281 19.1877 121.039 19.133C120.805 19.0705 120.59 19.0314 120.395 19.0158C120.207 18.9924 119.957 18.965 119.645 18.9338C119.332 18.9025 119.082 18.8752 118.895 18.8517C118.324 18.7892 117.859 18.7307 117.5 18.676C117.141 18.6135 116.777 18.5236 116.41 18.4064C116.043 18.2892 115.754 18.1447 115.543 17.9728C115.34 17.801 115.152 17.5783 114.98 17.3049C114.809 17.0314 114.688 16.7033 114.617 16.3205C114.547 15.9377 114.512 15.4807 114.512 14.9494C114.512 14.3869 114.57 13.9103 114.688 13.5197C114.805 13.1291 114.977 12.8049 115.203 12.5471C115.43 12.2892 115.738 12.09 116.129 11.9494C116.527 11.801 116.973 11.6994 117.465 11.6447C117.957 11.5822 118.559 11.551 119.27 11.551C119.715 11.551 120.078 11.5588 120.359 11.5744C120.648 11.5822 120.961 11.6096 121.297 11.6564C121.641 11.6955 121.918 11.7541 122.129 11.8322C122.34 11.9103 122.551 12.0197 122.762 12.1603C122.98 12.301 123.148 12.4767 123.266 12.6877C123.383 12.8908 123.477 13.1408 123.547 13.4377C123.625 13.7346 123.664 14.0744 123.664 14.4572L122.094 14.9377C122.062 14.633 122.031 14.3947 122 14.2228C121.977 14.0432 121.918 13.8791 121.824 13.7307C121.73 13.5822 121.633 13.4767 121.531 13.4142C121.43 13.3517 121.254 13.2971 121.004 13.2502C120.762 13.2033 120.516 13.176 120.266 13.1682C120.016 13.1603 119.656 13.1564 119.188 13.1564C118.188 13.1564 117.508 13.258 117.148 13.4611C116.797 13.6564 116.621 13.9807 116.621 14.4338V15.6291C116.621 16.1447 116.773 16.4728 117.078 16.6135C117.391 16.7463 118.219 16.8986 119.562 17.0705C119.703 17.0939 119.809 17.1096 119.879 17.1174C120.418 17.1799 120.844 17.2385 121.156 17.2932C121.477 17.3478 121.812 17.4221 122.164 17.5158C122.516 17.6017 122.781 17.7072 122.961 17.8322C123.148 17.9494 123.332 18.1017 123.512 18.2892C123.699 18.4767 123.832 18.7072 123.91 18.9807C123.996 19.2541 124.062 19.5705 124.109 19.9299C124.164 20.2892 124.191 20.715 124.191 21.2072ZM132.16 23.1408L132.113 24.7814C131.457 24.8908 130.863 24.9455 130.332 24.9455C129.762 24.9455 129.289 24.883 128.914 24.758C128.547 24.633 128.27 24.4338 128.082 24.1603C127.895 23.8869 127.766 23.5861 127.695 23.258C127.625 22.9221 127.59 22.4963 127.59 21.9807V13.2267H125.844V11.9142H127.59V8.258L129.887 8.0705V11.9142H132.254V13.2267H129.887V21.1955C129.887 22.0392 129.926 22.5861 130.004 22.8361C130.09 23.0861 130.316 23.2111 130.684 23.2111C131.043 23.2111 131.535 23.1877 132.16 23.1408Z" fill="white"/>
</svg>
